<?xml version="1.0" encoding="utf-8"?>
<!-- Generator: Adobe Illustrator 26.4.1, SVG Export Plug-In . SVG Version: 6.00 Build 0)  -->
<svg version="1.1" id="Layer_2" xmlns="http://www.w3.org/2000/svg" xmlns:xlink="http://www.w3.org/1999/xlink" x="0px" y="0px"
	 viewBox="0 0 1920 1080" style="enable-background:new 0 0 1920 1080;" xml:space="preserve">
<style type="text/css">
	.st0{fill:#F2B54B;stroke:#755B30;stroke-width:10;stroke-miterlimit:10;}
</style>
<g>
	<path class="st0" d="M541.4,169.9v460.3c0,6.6,5.4,12,12,12h274.8c4.3,0,8.2,2.3,10.4,6l26.3,45.6l19.4,33.6c4.6,8,16.2,8,20.8,0
		l19.4-33.6l26.3-45.6c2.1-3.7,6.1-6,10.4-6H1236c6.6,0,12-5.4,12-12V169.9c0-6.6-5.4-12-12-12H553.4
		C546.8,157.9,541.4,163.3,541.4,169.9z"/>
	<path d="M579.5,591.6v-383c0-6.6,5.4-12,12-12H1198c6.6,0,12,5.4,12,12v383c0,6.6-5.4,12-12,12H591.5
		C584.9,603.6,579.5,598.2,579.5,591.6z"/>
</g>
</svg>
