<svg version="1.1" id="Layer_2" width="50" height="auto" x="0px" y="0px" viewBox="0 0 1000 1000" style="enable-background:new 0 0 1000 1000;">
<style type="text/css">
	.st0{fill:#F2B54B;stroke:#755B30;stroke-width:10;stroke-miterlimit:10;}
	.st1{fill:#AB9164;stroke:#755B30;stroke-width:10;stroke-miterlimit:10;}
</style>
<g>
	<path class="st0" d="M146.7,224.26v460.3c0,6.63,5.37,12,12,12H433.5c4.29,0,8.25,2.29,10.39,6l26.32,45.6l19.4,33.59
		c4.62,8,16.17,8,20.78,0l19.4-33.59l26.32-45.6c2.14-3.71,6.11-6,10.39-6H841.3c6.63,0,12-5.37,12-12v-460.3c0-6.63-5.37-12-12-12
		H158.7C152.08,212.26,146.7,217.63,146.7,224.26z"/>
	<path class="st1" d="M184.77,645.91V262.9c0-6.63,5.37-12,12-12h606.46c6.63,0,12,5.37,12,12v383.01c0,6.63-5.37,12-12,12H196.77
		C190.14,657.91,184.77,652.54,184.77,645.91z"/>
</g>
</svg>
